<?xml version="1.0" encoding="UTF-8" standalone="no"?>
<svg
   xmlns:dc="http://purl.org/dc/elements/1.1/"
   xmlns:cc="http://creativecommons.org/ns#"
   xmlns:rdf="http://www.w3.org/1999/02/22-rdf-syntax-ns#"
   xmlns:svg="http://www.w3.org/2000/svg"
   xmlns="http://www.w3.org/2000/svg"
   xmlns:sodipodi="http://sodipodi.sourceforge.net/DTD/sodipodi-0.dtd"
   xmlns:inkscape="http://www.inkscape.org/namespaces/inkscape"
   width="264.58331mm"
   height="176.38889mm"
   viewBox="0 0 264.58331 176.38889"
   version="1.1"
   id="svg8"
   inkscape:version="1.0 (4035a4fb49, 2020-05-01)"
   sodipodi:docname="back.svg">
  <defs
     id="defs2">
    <clipPath
       id="clipPath638"
       clipPathUnits="userSpaceOnUse">
      <path
         id="path636"
         d="M 0,0 H 750 V 500 H 0 Z" />
    </clipPath>
  </defs>
  <sodipodi:namedview
     id="base"
     pagecolor="#ffffff"
     bordercolor="#666666"
     borderopacity="1.0"
     inkscape:pageopacity="0.0"
     inkscape:pageshadow="2"
     inkscape:zoom="0.49497475"
     inkscape:cx="727.91855"
     inkscape:cy="200.45316"
     inkscape:document-units="mm"
     inkscape:current-layer="g634"
     inkscape:document-rotation="0"
     showgrid="false"
     fit-margin-top="0"
     fit-margin-left="0"
     fit-margin-right="0"
     fit-margin-bottom="0"
     inkscape:window-width="1350"
     inkscape:window-height="728"
     inkscape:window-x="0"
     inkscape:window-y="0"
     inkscape:window-maximized="0" />
  <metadata
     id="metadata5">
    <rdf:RDF>
      <cc:Work
         rdf:about="">
        <dc:format>image/svg+xml</dc:format>
        <dc:type
           rdf:resource="http://purl.org/dc/dcmitype/StillImage" />
        <dc:title />
      </cc:Work>
    </rdf:RDF>
  </metadata>
  <g
     inkscape:label="Layer 1"
     inkscape:groupmode="layer"
     id="layer1"
     transform="translate(48.380953,-53.924605)">
    <g
       transform="matrix(0.35277777,0,0,-0.35277777,-48.380953,230.31349)"
       inkscape:label="5424120"
       id="g18">
      <path
         id="path20"
         style="fill:#ffffff;fill-opacity:1;fill-rule:nonzero;stroke:none"
         d="M 0,0 H 750 V 500 H 0 Z" />
      <g
         id="g632"
         transform="matrix(1,0,0,-1,0,500)">
        <g
           clip-path="url(#clipPath638)"
           id="g634">
          <g
             transform="translate(218.6539,85.4753)"
             id="g640">
            <path
               id="path642"
               style="fill:none;stroke:#363c40;stroke-width:0.75;stroke-linecap:butt;stroke-linejoin:miter;stroke-miterlimit:10;stroke-dasharray:none;stroke-opacity:1"
               d="M 0,0 7.706,7.706 15.413,0" />
          </g>
          <g
             transform="translate(218.6539,75.8571)"
             id="g644">
            <path
               id="path646"
               style="fill:none;stroke:#363c40;stroke-width:0.75;stroke-linecap:butt;stroke-linejoin:miter;stroke-miterlimit:10;stroke-dasharray:none;stroke-opacity:1"
               d="M 0,0 7.706,7.706 15.413,0" />
          </g>
          <g
             transform="translate(218.6539,66.239)"
             id="g648">
            <path
               id="path650"
               style="fill:none;stroke:#363c40;stroke-width:0.75;stroke-linecap:butt;stroke-linejoin:miter;stroke-miterlimit:10;stroke-dasharray:none;stroke-opacity:1"
               d="M 0,0 7.706,7.706 15.413,0" />
          </g>
          <g
             transform="translate(218.6539,56.6208)"
             id="g652">
            <path
               id="path654"
               style="fill:none;stroke:#363c40;stroke-width:0.75;stroke-linecap:butt;stroke-linejoin:miter;stroke-miterlimit:10;stroke-dasharray:none;stroke-opacity:1"
               d="M 0,0 7.706,7.706 15.413,0" />
          </g>
          <g
             transform="translate(218.6539,47.0016)"
             id="g656">
            <path
               id="path658"
               style="fill:none;stroke:#363c40;stroke-width:0.75;stroke-linecap:butt;stroke-linejoin:miter;stroke-miterlimit:10;stroke-dasharray:none;stroke-opacity:1"
               d="M 0,0 7.706,7.706 15.413,0" />
          </g>
          <g
             transform="translate(708.733,408.7477)"
             id="g660">
            <path
               id="path662"
               style="fill:none;stroke:#363c40;stroke-width:0.75;stroke-linecap:butt;stroke-linejoin:miter;stroke-miterlimit:10;stroke-dasharray:none;stroke-opacity:1"
               d="M 0,0 -7.706,-7.706 -15.413,0" />
          </g>
          <g
             transform="translate(708.733,418.3664)"
             id="g664">
            <path
               id="path666"
               style="fill:none;stroke:#363c40;stroke-width:0.75;stroke-linecap:butt;stroke-linejoin:miter;stroke-miterlimit:10;stroke-dasharray:none;stroke-opacity:1"
               d="M 0,0 -7.706,-7.707 -15.413,0" />
          </g>
          <g
             transform="translate(708.733,427.9846)"
             id="g668">
            <path
               id="path670"
               style="fill:none;stroke:#363c40;stroke-width:0.75;stroke-linecap:butt;stroke-linejoin:miter;stroke-miterlimit:10;stroke-dasharray:none;stroke-opacity:1"
               d="M 0,0 -7.706,-7.706 -15.413,0" />
          </g>
          <g
             transform="translate(708.733,437.6032)"
             id="g672">
            <path
               id="path674"
               style="fill:none;stroke:#363c40;stroke-width:0.75;stroke-linecap:butt;stroke-linejoin:miter;stroke-miterlimit:10;stroke-dasharray:none;stroke-opacity:1"
               d="M 0,0 -7.706,-7.707 -15.413,0" />
          </g>
          <g
             transform="translate(708.733,447.2214)"
             id="g676">
            <path
               id="path678"
               style="fill:none;stroke:#363c40;stroke-width:0.75;stroke-linecap:butt;stroke-linejoin:miter;stroke-miterlimit:10;stroke-dasharray:none;stroke-opacity:1"
               d="M 0,0 -7.706,-7.706 -15.413,0" />
          </g>
          <g
             transform="translate(599.9078,127.8884)"
             id="g680">
            <path
               id="path682"
               style="fill:none;stroke:#363c40;stroke-width:0.75;stroke-linecap:butt;stroke-linejoin:miter;stroke-miterlimit:10;stroke-dasharray:none;stroke-opacity:1"
               d="M 0,0 7.706,7.706 15.412,0" />
          </g>
          <g
             transform="translate(599.9078,118.2702)"
             id="g684">
            <path
               id="path686"
               style="fill:none;stroke:#363c40;stroke-width:0.75;stroke-linecap:butt;stroke-linejoin:miter;stroke-miterlimit:10;stroke-dasharray:none;stroke-opacity:1"
               d="M 0,0 7.706,7.706 15.412,0" />
          </g>
          <g
             transform="translate(599.9078,108.6511)"
             id="g688">
            <path
               id="path690"
               style="fill:none;stroke:#363c40;stroke-width:0.75;stroke-linecap:butt;stroke-linejoin:miter;stroke-miterlimit:10;stroke-dasharray:none;stroke-opacity:1"
               d="M 0,0 7.706,7.707 15.412,0" />
          </g>
          <g
             transform="translate(599.9078,99.0329)"
             id="g692">
            <path
               id="path694"
               style="fill:none;stroke:#363c40;stroke-width:0.75;stroke-linecap:butt;stroke-linejoin:miter;stroke-miterlimit:10;stroke-dasharray:none;stroke-opacity:1"
               d="M 0,0 7.706,7.706 15.412,0" />
          </g>
          <g
             transform="translate(599.9078,89.4147)"
             id="g696">
            <path
               id="path698"
               style="fill:none;stroke:#363c40;stroke-width:0.75;stroke-linecap:butt;stroke-linejoin:miter;stroke-miterlimit:10;stroke-dasharray:none;stroke-opacity:1"
               d="M 0,0 7.706,7.706 15.412,0" />
          </g>
          <g
             transform="translate(357.1539,493.0939)"
             id="g700">
            <path
               id="path702"
               style="fill:none;stroke:#363c40;stroke-width:0.75;stroke-linecap:butt;stroke-linejoin:miter;stroke-miterlimit:10;stroke-dasharray:none;stroke-opacity:1"
               d="M 0,0 7.706,7.707 15.413,0" />
          </g>
          <g
             transform="translate(357.1539,483.4758)"
             id="g704">
            <path
               id="path706"
               style="fill:none;stroke:#363c40;stroke-width:0.75;stroke-linecap:butt;stroke-linejoin:miter;stroke-miterlimit:10;stroke-dasharray:none;stroke-opacity:1"
               d="M 0,0 7.706,7.706 15.413,0" />
          </g>
          <g
             transform="translate(357.1539,473.8571)"
             id="g708">
            <path
               id="path710"
               style="fill:none;stroke:#363c40;stroke-width:0.75;stroke-linecap:butt;stroke-linejoin:miter;stroke-miterlimit:10;stroke-dasharray:none;stroke-opacity:1"
               d="M 0,0 7.706,7.706 15.413,0" />
          </g>
          <g
             transform="translate(357.1539,464.2385)"
             id="g712">
            <path
               id="path714"
               style="fill:none;stroke:#363c40;stroke-width:0.75;stroke-linecap:butt;stroke-linejoin:miter;stroke-miterlimit:10;stroke-dasharray:none;stroke-opacity:1"
               d="M 0,0 7.706,7.707 15.413,0" />
          </g>
          <g
             transform="translate(79.3756,215.3425)"
             id="g716">
            <path
               id="path718"
               style="fill:none;stroke:#363c40;stroke-width:0.75;stroke-linecap:butt;stroke-linejoin:miter;stroke-miterlimit:10;stroke-dasharray:none;stroke-opacity:1"
               d="M 0,0 -7.707,-7.707 -15.413,0" />
          </g>
          <g
             transform="translate(79.3756,224.9606)"
             id="g720">
            <path
               id="path722"
               style="fill:none;stroke:#363c40;stroke-width:0.75;stroke-linecap:butt;stroke-linejoin:miter;stroke-miterlimit:10;stroke-dasharray:none;stroke-opacity:1"
               d="M 0,0 -7.707,-7.706 -15.413,0" />
          </g>
          <g
             transform="translate(79.3756,234.5788)"
             id="g724">
            <path
               id="path726"
               style="fill:none;stroke:#363c40;stroke-width:0.75;stroke-linecap:butt;stroke-linejoin:miter;stroke-miterlimit:10;stroke-dasharray:none;stroke-opacity:1"
               d="M 0,0 -7.707,-7.706 -15.413,0" />
          </g>
          <g
             transform="translate(79.3756,244.197)"
             id="g728">
            <path
               id="path730"
               style="fill:none;stroke:#363c40;stroke-width:0.75;stroke-linecap:butt;stroke-linejoin:miter;stroke-miterlimit:10;stroke-dasharray:none;stroke-opacity:1"
               d="M 0,0 -7.707,-7.706 -15.413,0" />
          </g>
          <g
             transform="translate(79.3756,253.8156)"
             id="g732">
            <path
               id="path734"
               style="fill:none;stroke:#363c40;stroke-width:0.75;stroke-linecap:butt;stroke-linejoin:miter;stroke-miterlimit:10;stroke-dasharray:none;stroke-opacity:1"
               d="M 0,0 -7.707,-7.707 -15.413,0" />
          </g>
          <g
             transform="translate(290.4435,444.2844)"
             id="g844">
            <path
               id="path846"
               style="fill:none;stroke:#00a1ff;stroke-width:0.5;stroke-linecap:butt;stroke-linejoin:miter;stroke-miterlimit:10;stroke-dasharray:none;stroke-opacity:1"
               d="m 0,0 c 0,-3.216 -2.607,-5.823 -5.823,-5.823 -3.216,0 -5.823,2.607 -5.823,5.823 0,3.216 2.607,5.823 5.823,5.823 C -2.607,5.823 0,3.216 0,0 Z" />
          </g>
          <g
             transform="translate(742.1823,500.0002)"
             id="g848">
            <path
               id="path850"
               style="fill:none;stroke:#00a1ff;stroke-width:3;stroke-linecap:butt;stroke-linejoin:miter;stroke-miterlimit:10;stroke-dasharray:none;stroke-opacity:1"
               d="m 0,0 c 0,-3.216 -2.606,-5.823 -5.822,-5.823 -3.216,0 -5.823,2.607 -5.823,5.823 0,3.216 2.607,5.823 5.823,5.823 C -2.606,5.823 0,3.216 0,0 Z" />
          </g>
          <g
             transform="translate(44.5773,434.4601)"
             id="g852">
            <path
               id="path854"
               style="fill:none;stroke:#00a1ff;stroke-width:3;stroke-linecap:butt;stroke-linejoin:miter;stroke-miterlimit:10;stroke-dasharray:none;stroke-opacity:1"
               d="m 0,0 c 0,-3.216 -2.607,-5.823 -5.823,-5.823 -3.216,0 -5.823,2.607 -5.823,5.823 0,3.216 2.607,5.823 5.823,5.823 C -2.607,5.823 0,3.216 0,0 Z" />
          </g>
          <g
             transform="translate(673.36,333.945)"
             id="g856">
            <path
               id="path858"
               style="fill:none;stroke:#00a1ff;stroke-width:3;stroke-linecap:butt;stroke-linejoin:miter;stroke-miterlimit:10;stroke-dasharray:none;stroke-opacity:1"
               d="m 0,0 c 0,-3.216 -2.606,-5.823 -5.822,-5.823 -3.216,0 -5.824,2.607 -5.824,5.823 0,3.216 2.608,5.823 5.824,5.823 C -2.606,5.823 0,3.216 0,0 Z" />
          </g>
          <g
             transform="translate(684.3151,135.5876)"
             id="g860">
            <path
               id="path862"
               style="fill:none;stroke:#00a1ff;stroke-width:0.5;stroke-linecap:butt;stroke-linejoin:miter;stroke-miterlimit:10;stroke-dasharray:none;stroke-opacity:1"
               d="m 0,0 c 0,-3.216 -2.607,-5.822 -5.823,-5.822 -3.216,0 -5.823,2.606 -5.823,5.822 0,3.216 2.607,5.823 5.823,5.823 C -2.607,5.823 0,3.216 0,0 Z" />
          </g>
          <g
             transform="translate(147.5778,131.2292)"
             id="g864">
            <path
               id="path866"
               style="fill:none;stroke:#00a1ff;stroke-width:0.5;stroke-linecap:butt;stroke-linejoin:miter;stroke-miterlimit:10;stroke-dasharray:none;stroke-opacity:1"
               d="m 0,0 c 0,-3.216 -2.607,-5.822 -5.823,-5.822 -3.216,0 -5.823,2.606 -5.823,5.822 0,3.216 2.607,5.823 5.823,5.823 C -2.607,5.823 0,3.216 0,0 Z" />
          </g>
          <g
             transform="translate(448.4996,33.8718)"
             id="g868">
            <path
               id="path870"
               style="fill:none;stroke:#00a1ff;stroke-width:3;stroke-linecap:butt;stroke-linejoin:miter;stroke-miterlimit:10;stroke-dasharray:none;stroke-opacity:1"
               d="m 0,0 c 0,-3.216 -2.607,-5.823 -5.823,-5.823 -3.216,0 -5.823,2.607 -5.823,5.823 0,3.216 2.607,5.822 5.823,5.822 C -2.607,5.822 0,3.216 0,0 Z" />
          </g>
          <g
             transform="translate(21.7223,39.694)"
             id="g872">
            <path
               id="path874"
               style="fill:none;stroke:#00a1ff;stroke-width:3;stroke-linecap:butt;stroke-linejoin:miter;stroke-miterlimit:10;stroke-dasharray:none;stroke-opacity:1"
               d="m 0,0 c 0,-3.216 -2.607,-5.822 -5.823,-5.822 -3.216,0 -5.823,2.606 -5.823,5.822 0,3.216 2.607,5.822 5.823,5.822 C -2.607,5.822 0,3.216 0,0 Z" />
          </g>
          <g
             transform="translate(96.5695,323.821)"
             id="g876">
            <path
               id="path878"
               style="fill:none;stroke:#363c40;stroke-width:0.5;stroke-linecap:butt;stroke-linejoin:miter;stroke-miterlimit:10;stroke-dasharray:none;stroke-opacity:1"
               d="M 0,0 40.013,40.013" />
          </g>
          <g
             transform="translate(729.9938,26.488)"
             id="g880">
            <path
               id="path882"
               style="fill:none;stroke:#363c40;stroke-width:0.5;stroke-linecap:butt;stroke-linejoin:miter;stroke-miterlimit:10;stroke-dasharray:none;stroke-opacity:1"
               d="M 0,0 40.013,40.013" />
          </g>
          <g
             transform="translate(-20.0062,422.988)"
             id="g884">
            <path
               id="path886"
               style="fill:none;stroke:#363c40;stroke-width:0.5;stroke-linecap:butt;stroke-linejoin:miter;stroke-miterlimit:10;stroke-dasharray:none;stroke-opacity:1"
               d="M 0,0 40.013,40.012" />
          </g>
          <g
             transform="translate(546.403,434.9816)"
             id="g888">
            <path
               id="path890"
               style="fill:none;stroke:#363c40;stroke-width:0.5;stroke-linecap:butt;stroke-linejoin:miter;stroke-miterlimit:10;stroke-dasharray:none;stroke-opacity:1"
               d="M 0,0 40.013,40.013" />
          </g>
          <g
             transform="translate(552.485,389.0695)"
             id="g892">
            <path
               id="path894"
               style="fill:none;stroke:#00a1ff;stroke-width:0.5;stroke-linecap:butt;stroke-linejoin:miter;stroke-miterlimit:10;stroke-dasharray:none;stroke-opacity:1"
               d="M 0,0 40.012,40.013" />
          </g>
          <g
             transform="translate(643.485,148.07)"
             id="g896">
            <path
               id="path898"
               style="fill:none;stroke:#00a1ff;stroke-width:0.5;stroke-linecap:butt;stroke-linejoin:miter;stroke-miterlimit:10;stroke-dasharray:none;stroke-opacity:1"
               d="M 0,0 40.012,40.012" />
          </g>
          <g
             transform="translate(554.818,-17.597)"
             id="g900">
            <path
               id="path902"
               style="fill:none;stroke:#00a1ff;stroke-width:0.5;stroke-linecap:butt;stroke-linejoin:miter;stroke-miterlimit:10;stroke-dasharray:none;stroke-opacity:1"
               d="M 0,0 40.013,40.013" />
          </g>
          <g
             transform="translate(270.9845,26.488)"
             id="g904">
            <path
               id="path906"
               style="fill:none;stroke:#00a1ff;stroke-width:0.5;stroke-linecap:butt;stroke-linejoin:miter;stroke-miterlimit:10;stroke-dasharray:none;stroke-opacity:1"
               d="M 0,0 40.013,40.013" />
          </g>
          <g
             transform="translate(9.444,-13.971)"
             id="g908">
            <path
               id="path910"
               style="fill:none;stroke:#00a1ff;stroke-width:0.5;stroke-linecap:butt;stroke-linejoin:miter;stroke-miterlimit:10;stroke-dasharray:none;stroke-opacity:1"
               d="M 0,0 40.012,40.013" />
          </g>
          <g
             transform="translate(-10.5624,203.362)"
             id="g912">
            <path
               id="path914"
               style="fill:none;stroke:#00a1ff;stroke-width:0.5;stroke-linecap:butt;stroke-linejoin:miter;stroke-miterlimit:10;stroke-dasharray:none;stroke-opacity:1"
               d="M 0,0 40.012,40.013" />
          </g>
          <g
             transform="translate(245.7741,484.3591)"
             id="g916">
            <path
               id="path918"
               style="fill:none;stroke:#00a1ff;stroke-width:0.5;stroke-linecap:butt;stroke-linejoin:miter;stroke-miterlimit:10;stroke-dasharray:none;stroke-opacity:1"
               d="M 0,0 40.012,40.012" />
          </g>
          <g
             transform="translate(546.403,487.9704)"
             id="g920">
            <path
               id="path922"
               style="fill:none;stroke:#00a1ff;stroke-width:0.5;stroke-linecap:butt;stroke-linejoin:miter;stroke-miterlimit:10;stroke-dasharray:none;stroke-opacity:1"
               d="M 0,0 40.013,40.013" />
          </g>
          <g
             transform="translate(268.1696,-20.0062)"
             id="g924">
            <path
               id="path926"
               style="fill:none;stroke:#363c40;stroke-width:0.5;stroke-linecap:butt;stroke-linejoin:miter;stroke-miterlimit:10;stroke-dasharray:none;stroke-opacity:1"
               d="M 0,0 40.013,40.013" />
          </g>
          <g
             transform="translate(60.2892,86.488)"
             id="g928">
            <path
               id="path930"
               style="fill:none;stroke:#363c40;stroke-width:0.5;stroke-linecap:butt;stroke-linejoin:miter;stroke-miterlimit:10;stroke-dasharray:none;stroke-opacity:1"
               d="M 0,0 40.013,40.013" />
          </g>
          <g
             transform="translate(512.903,72.988)"
             id="g932">
            <path
               id="path934"
               style="fill:none;stroke:#363c40;stroke-width:0.5;stroke-linecap:butt;stroke-linejoin:miter;stroke-miterlimit:10;stroke-dasharray:none;stroke-opacity:1"
               d="M 0,0 40.013,40.013" />
          </g>
          <g
             transform="translate(734.403,454.988)"
             id="g936">
            <path
               id="path938"
               style="fill:none;stroke:#363c40;stroke-width:0.5;stroke-linecap:butt;stroke-linejoin:miter;stroke-miterlimit:10;stroke-dasharray:none;stroke-opacity:1"
               d="M 0,0 40.013,40.012" />
          </g>
          <g
             transform="translate(302.903,479.9938)"
             id="g940">
            <path
               id="path942"
               style="fill:none;stroke:#363c40;stroke-width:0.5;stroke-linecap:butt;stroke-linejoin:miter;stroke-miterlimit:10;stroke-dasharray:none;stroke-opacity:1"
               d="M 0,0 40.012,40.013" />
          </g>
          <g
             transform="translate(729.9938,313.7409)"
             id="g944">
            <path
               id="path946"
               style="fill:none;stroke:#363c40;stroke-width:0.5;stroke-linecap:butt;stroke-linejoin:miter;stroke-miterlimit:10;stroke-dasharray:none;stroke-opacity:1"
               d="M 0,0 40.013,40.012" />
          </g>
          <g
             transform="translate(178.6515,399.57)"
             id="g948">
            <path
               id="path950"
               style="fill:#00a1ff;fill-opacity:1;fill-rule:nonzero;stroke:none"
               d="m 0,0 c 0,-0.713 -0.578,-1.292 -1.292,-1.292 -0.713,0 -1.291,0.579 -1.291,1.292 0,0.713 0.578,1.292 1.291,1.292 C -0.578,1.292 0,0.713 0,0" />
          </g>
          <g
             transform="translate(100.985,178.32)"
             id="g952">
            <path
               id="path954"
               style="fill:#00a1ff;fill-opacity:1;fill-rule:nonzero;stroke:none"
               d="m 0,0 c 0,-0.713 -0.578,-1.292 -1.292,-1.292 -0.713,0 -1.291,0.579 -1.291,1.292 0,0.713 0.578,1.292 1.291,1.292 C -0.578,1.292 0,0.713 0,0" />
          </g>
          <g
             transform="translate(727.36,369.945)"
             id="g956">
            <path
               id="path958"
               style="fill:#00a1ff;fill-opacity:1;fill-rule:nonzero;stroke:none"
               d="m 0,0 c 0,-0.713 -0.578,-1.292 -1.292,-1.292 -0.713,0 -1.291,0.579 -1.291,1.292 0,0.713 0.578,1.292 1.291,1.292 C -0.578,1.292 0,0.713 0,0" />
          </g>
          <g
             transform="translate(719.652,46.4938)"
             id="g960">
            <path
               id="path962"
               style="fill:#00a1ff;fill-opacity:1;fill-rule:nonzero;stroke:none"
               d="m 0,0 c 0,-0.713 -0.578,-1.291 -1.292,-1.291 -0.714,0 -1.292,0.578 -1.292,1.291 0,0.714 0.578,1.292 1.292,1.292 C -0.578,1.292 0,0.714 0,0" />
          </g>
          <g
             transform="translate(393.777,20.945)"
             id="g964">
            <path
               id="path966"
               style="fill:#00a1ff;fill-opacity:1;fill-rule:nonzero;stroke:none"
               d="m 0,0 c 0,-0.714 -0.578,-1.292 -1.292,-1.292 -0.714,0 -1.292,0.578 -1.292,1.292 0,0.714 0.578,1.292 1.292,1.292 C -0.578,1.292 0,0.714 0,0" />
          </g>
          <g
             transform="translate(397.652,474.9943)"
             id="g968">
            <path
               id="path970"
               style="fill:#00a1ff;fill-opacity:1;fill-rule:nonzero;stroke:none"
               d="m 0,0 c 0,-0.713 -0.578,-1.292 -1.292,-1.292 -0.714,0 -1.292,0.579 -1.292,1.292 0,0.713 0.578,1.292 1.292,1.292 C -0.578,1.292 0,0.713 0,0" />
          </g>
          <g
             transform="translate(507.652,417.2365)"
             id="g972">
            <path
               id="path974"
               style="fill:#00a1ff;fill-opacity:1;fill-rule:nonzero;stroke:none"
               d="m 0,0 c 0,-0.713 -0.578,-1.292 -1.292,-1.292 -0.714,0 -1.292,0.579 -1.292,1.292 0,0.713 0.578,1.292 1.292,1.292 C -0.578,1.292 0,0.713 0,0" />
          </g>
          <g
             transform="translate(695.36,474.9943)"
             id="g976">
            <path
               id="path978"
               style="fill:#00a1ff;fill-opacity:1;fill-rule:nonzero;stroke:none"
               d="m 0,0 c 0,-0.713 -0.578,-1.292 -1.292,-1.292 -0.713,0 -1.291,0.579 -1.291,1.292 0,0.713 0.578,1.292 1.291,1.292 C -0.578,1.292 0,0.713 0,0" />
          </g>
          <g
             transform="translate(670.652,212.737)"
             id="g980">
            <path
               id="path982"
               style="fill:#363c40;fill-opacity:1;fill-rule:nonzero;stroke:none"
               d="m 0,0 c 0,-0.714 -0.578,-1.292 -1.292,-1.292 -0.714,0 -1.292,0.578 -1.292,1.292 0,0.713 0.578,1.291 1.292,1.291 C -0.578,1.291 0,0.713 0,0" />
          </g>
          <g
             transform="translate(576.1158,62.653)"
             id="g984">
            <path
               id="path986"
               style="fill:#363c40;fill-opacity:1;fill-rule:nonzero;stroke:none"
               d="m 0,0 c 0,-0.713 -0.578,-1.291 -1.292,-1.291 -0.713,0 -1.291,0.578 -1.291,1.291 0,0.714 0.578,1.292 1.291,1.292 C -0.578,1.292 0,0.714 0,0" />
          </g>
          <g
             transform="translate(138.6515,473.7023)"
             id="g988">
            <path
               id="path990"
               style="fill:#363c40;fill-opacity:1;fill-rule:nonzero;stroke:none"
               d="m 0,0 c 0,-0.713 -0.578,-1.292 -1.292,-1.292 -0.713,0 -1.291,0.579 -1.291,1.292 0,0.713 0.578,1.292 1.291,1.292 C -0.578,1.292 0,0.713 0,0" />
          </g>
          <g
             transform="translate(55.36,60.945)"
             id="g992">
            <path
               id="path994"
               style="fill:#363c40;fill-opacity:1;fill-rule:nonzero;stroke:none"
               d="m 0,0 c 0,-0.714 -0.578,-1.292 -1.292,-1.292 -0.713,0 -1.291,0.578 -1.291,1.292 0,0.714 0.578,1.292 1.291,1.292 C -0.578,1.292 0,0.714 0,0" />
          </g>
          <g
             transform="translate(273.9435,91.7028)"
             id="g996">
            <path
               id="path998"
               style="fill:#363c40;fill-opacity:1;fill-rule:nonzero;stroke:none"
               d="m 0,0 c 0,-0.714 -0.579,-1.292 -1.292,-1.292 -0.713,0 -1.291,0.578 -1.291,1.292 0,0.713 0.578,1.291 1.291,1.291 C -0.579,1.291 0,0.713 0,0" />
          </g>
        </g>
      </g>
    </g>
  </g>
</svg>
