<?xml version="1.0" encoding="UTF-8" standalone="no"?>
<svg
   xmlns:dc="http://purl.org/dc/elements/1.1/"
   xmlns:cc="http://creativecommons.org/ns#"
   xmlns:rdf="http://www.w3.org/1999/02/22-rdf-syntax-ns#"
   xmlns:svg="http://www.w3.org/2000/svg"
   xmlns="http://www.w3.org/2000/svg"
   xmlns:sodipodi="http://sodipodi.sourceforge.net/DTD/sodipodi-0.dtd"
   xmlns:inkscape="http://www.inkscape.org/namespaces/inkscape"
   inkscape:version="1.0 (4035a4fb49, 2020-05-01)"
   sodipodi:docname="document.svg"
   version="1.1"
   width="512"
   viewBox="0 0 512 512"
   height="512"
   id="Flat">
  <metadata
     id="metadata53">
    <rdf:RDF>
      <cc:Work
         rdf:about="">
        <dc:format>image/svg+xml</dc:format>
        <dc:type
           rdf:resource="http://purl.org/dc/dcmitype/StillImage" />
      </cc:Work>
    </rdf:RDF>
  </metadata>
  <defs
     id="defs51" />
  <sodipodi:namedview
     inkscape:current-layer="g46"
     inkscape:window-maximized="1"
     inkscape:window-y="-8"
     inkscape:window-x="-8"
     inkscape:cy="432.56129"
     inkscape:cx="351.49461"
     inkscape:zoom="2.9720582"
     showgrid="false"
     id="namedview49"
     inkscape:window-height="705"
     inkscape:window-width="1366"
     inkscape:pageshadow="2"
     inkscape:pageopacity="0"
     guidetolerance="10"
     gridtolerance="10"
     objecttolerance="10"
     borderopacity="1"
     bordercolor="#666666"
     pagecolor="#ffffff" />
  <g
     transform="matrix(1.0754151,0,0,1.0754151,-19.248696,-19.306254)"
     id="g46">
    <path
       style="stroke-width:1.01223"
       id="path2"
       fill="#fdbf44"
       d="m 409.19784,488 h -40.29002 l -16.39389,-16 0.24386,-432 129.07726,22.27 a 10.246179,10 0 0 1 8.31683,11.53 L 419.29852,479.68 A 10.246179,10 0 0 1 409.19784,488 Z" />
    <path
       sodipodi:nodetypes="cccccc"
       style="stroke-width:1.0445"
       id="path4"
       fill="#e6ad3e"
       d="M 376.46625,45.579241 376.20659,472 l 17.45595,16 h 17.45592 V 51.194241 Z" />
    <g
       id="g44">
      <rect
         style="stroke-width:1.0445"
         id="rect6"
         y="24"
         x="24"
         width="375.30264"
         rx="10.90996"
         height="464"
         fill="#25b1fa" />
      <g
         transform="translate(11.651321)"
         id="g124">
        <rect
           fill="#fcfeff"
           height="80"
           rx="20"
           width="80"
           x="64"
           y="256"
           id="rect8" />
        <rect
           fill="#fcfeff"
           height="80"
           rx="20"
           width="80"
           x="64"
           y="376"
           id="rect10" />
        <path
           id="path12"
           fill="#80daff"
           d="m 112,320 a 8,8 0 0 1 -5.657,-2.343 l -24,-24 11.314,-11.314 17.891,17.891 42.378,-49.441 12.148,10.414 -48,56 a 8,8 0 0 1 -5.767,2.787 C 112.205,320 112.1,320 112,320 Z" />
        <path
           id="path14"
           fill="#80daff"
           d="m 112,440 a 8,8 0 0 1 -5.657,-2.343 l -24,-24 11.314,-11.314 17.891,17.891 42.378,-49.441 12.148,10.414 -48,56 a 8,8 0 0 1 -5.767,2.787 C 112.205,440 112.1,440 112,440 Z" />
        <path
           style="fill:#fcfeff"
           d="m 184,368 h 120 v 16 H 184 Z"
           id="path16" />
        <path
           style="fill:#fcfeff"
           d="m 184,408 h 40 v 16 h -40 z"
           id="path18" />
        <path
           style="fill:#fcfeff"
           id="path24"
           d="m 240,408 h 64 v 16 h -64 z" />
        <path
           style="fill:#fcfeff"
           id="path26"
           d="m 184,248 h 120 v 16 H 184 Z" />
        <path
           style="fill:#fcfeff"
           id="path28"
           d="m 184,288 h 40 v 16 h -40 z" />
        <path
           style="fill:#fcfeff"
           id="path30"
           d="m 240,288 h 64 v 16 h -64 z" />
        <path
           style="fill:#fcfeff"
           id="path32"
           d="m 199.9,56 -71.9,32.061 5.993,38.05 a 122.979,122.979 0 0 0 48.531,77.107 l 17.441,12.845 16.616,-12.079 a 122.937,122.937 0 0 0 49.164,-77.559 L 271.8,88.061 Z m -2.435,101.717 a 8,8 0 0 1 -11.313,0 l -24,-24 11.314,-11.317 18.344,18.343 42.343,-42.343 11.313,11.313 z" />
        <path
           style="fill:#fcfeff"
           id="path34"
           d="m 56,48 h 48 V 64 H 56 Z" />
        <path
           style="fill:#fcfeff"
           id="path36"
           d="M 56,80 H 88 V 96 H 56 Z" />
        <path
           style="fill:#fcfeff"
           id="path38"
           d="m 296,48 h 16 v 16 h -16 z" />
        <path
           style="fill:#fcfeff"
           id="path40"
           d="m 328,48 h 16 v 16 h -16 z" />
      </g>
    </g>
  </g>
</svg>
