<?xml version="1.0" encoding="UTF-8" standalone="no"?>
<svg
   width="9.8294792in"
   height="1.650075in"
   viewBox="0 0 249.66877 41.911902"
   version="1.1"
   id="svg8"
   inkscape:version="1.1.2 (0a00cf5339, 2022-02-04)"
   sodipodi:docname="koptengah.svg"
   xmlns:inkscape="http://www.inkscape.org/namespaces/inkscape"
   xmlns:sodipodi="http://sodipodi.sourceforge.net/DTD/sodipodi-0.dtd"
   xmlns:xlink="http://www.w3.org/1999/xlink"
   xmlns="http://www.w3.org/2000/svg"
   xmlns:svg="http://www.w3.org/2000/svg"
   xmlns:rdf="http://www.w3.org/1999/02/22-rdf-syntax-ns#"
   xmlns:cc="http://creativecommons.org/ns#"
   xmlns:dc="http://purl.org/dc/elements/1.1/">
  <defs
     id="defs2">
    <linearGradient
       inkscape:collect="always"
       id="linearGradient31921">
      <stop
         style="stop-color:#a5ffb9;stop-opacity:1"
         offset="0"
         id="stop31923" />
      <stop
         style="stop-color:#ffffff;stop-opacity:1"
         offset="1"
         id="stop31925" />
    </linearGradient>
    <linearGradient
       y2="1664.3556"
       x2="1264.8281"
       y1="1664.3556"
       x1="1224.9945"
       gradientTransform="matrix(0.28050096,0,0,0.28050096,-362.00149,-366.33765)"
       gradientUnits="userSpaceOnUse"
       id="linearGradient104"
       xlink:href="#linearGradient31921"
       inkscape:collect="always" />
    <linearGradient
       y2="1664.3556"
       x2="1304.6616"
       y1="1664.3556"
       x1="1264.828"
       gradientTransform="matrix(0.28050096,0,0,0.28050096,-362.00149,-366.33765)"
       gradientUnits="userSpaceOnUse"
       id="linearGradient106"
       xlink:href="#linearGradient31921"
       inkscape:collect="always" />
    <linearGradient
       y2="1614.5833"
       x2="1302.8188"
       y1="1614.5833"
       x1="1226.8373"
       gradientTransform="matrix(9.9667769,0,0,9.9667769,-22377.688,-17328.77)"
       gradientUnits="userSpaceOnUse"
       id="linearGradient108"
       xlink:href="#linearGradient31921"
       inkscape:collect="always" />
    <linearGradient
       y2="1614.5833"
       x2="1302.8188"
       y1="1614.5833"
       x1="1226.8373"
       gradientTransform="matrix(9.9667769,0,0,9.9667769,-22377.688,-17328.77)"
       gradientUnits="userSpaceOnUse"
       id="linearGradient110"
       xlink:href="#linearGradient31921"
       inkscape:collect="always" />
  </defs>
  <sodipodi:namedview
     id="base"
     pagecolor="#ffffff"
     bordercolor="#666666"
     borderopacity="1.0"
     inkscape:pageopacity="0.0"
     inkscape:pageshadow="2"
     inkscape:zoom="0.50380793"
     inkscape:cx="395.98424"
     inkscape:cy="-99.24417"
     inkscape:document-units="mm"
     inkscape:current-layer="layer1"
     inkscape:document-rotation="0"
     showgrid="false"
     inkscape:window-width="1366"
     inkscape:window-height="732"
     inkscape:window-x="0"
     inkscape:window-y="0"
     inkscape:window-maximized="1"
     fit-margin-top="0"
     fit-margin-left="0"
     fit-margin-right="0"
     fit-margin-bottom="0"
     inkscape:pagecheckerboard="0"
     units="in" />
  <metadata
     id="metadata5">
    <rdf:RDF>
      <cc:Work
         rdf:about="">
        <dc:format>image/svg+xml</dc:format>
        <dc:type
           rdf:resource="http://purl.org/dc/dcmitype/StillImage" />
      </cc:Work>
    </rdf:RDF>
  </metadata>
  <g
     inkscape:label="Layer 1"
     inkscape:groupmode="layer"
     id="layer1"
     transform="translate(67.107065,-137.04451)">
    <g
       id="g19930"
       transform="translate(-23.523813,1.041741)">
      <g
         id="g62"
         transform="matrix(0.79454674,0,0,0.79454674,-12.388753,82.533082)">
        <path
           id="path44"
           style="fill:#6ac335;fill-opacity:1;stroke:none;stroke-width:0.0844308;stroke-linecap:round;stroke-linejoin:round;stroke-miterlimit:4;stroke-dasharray:none;stroke-opacity:1"
           d="M 10.410183,94.099539 A 17.626182,17.626182 0 0 1 -7.215998,111.72574 17.626182,17.626182 0 0 1 -24.842179,94.099539 17.626182,17.626182 0 0 1 -7.215998,76.473364 17.626182,17.626182 0 0 1 10.410183,94.099539" />
        <path
           style="fill:url(#linearGradient104);fill-opacity:1;fill-rule:evenodd;stroke:none;stroke-width:0.0281435px;stroke-linecap:butt;stroke-linejoin:miter;stroke-opacity:1"
           d="m -7.2300511,94.824129 v 6.453461 6.45345 c 0,0 -1.8024431,-1.13717 -4.8045319,-1.13717 -3.002118,0 -4.804589,0.90972 -4.804589,0.90972 l -0.767563,-6.85146 -0.767591,-6.851465 c 0,0 0.894405,-0.511718 5.572124,-0.511718 4.6777736,0 5.5721509,1.535182 5.5721509,1.535182 z"
           id="path46"
           inkscape:connector-curvature="0"
           sodipodi:nodetypes="ccczccczc" />
        <path
           sodipodi:nodetypes="ccczccczc"
           inkscape:connector-curvature="0"
           id="path48"
           d="m -7.2019449,94.824129 v 6.453461 6.45345 c 0,0 1.802415,-1.13717 4.8045326,-1.13717 3.00214572,0 4.8045888,0.90972 4.8045888,0.90972 l 0.7675628,-6.85146 0.7676189,-6.851465 c 0,0 -0.8944334,-0.511718 -5.5721516,-0.511718 -4.6777742,0 -5.5721515,1.535182 -5.5721515,1.535182 z"
           style="fill:url(#linearGradient106);fill-opacity:1;fill-rule:evenodd;stroke:none;stroke-width:0.0281435px;stroke-linecap:butt;stroke-linejoin:miter;stroke-opacity:1" />
        <g
           id="g54"
           transform="matrix(0.28050096,0,0,0.28050096,-260.64565,-365.56852)">
          <path
             inkscape:connector-curvature="0"
             id="path50"
             transform="matrix(0.10033333,0,0,0.10033333,1883.8895,1735.9114)"
             d="m -9778.1016,-1567.6445 a 57.871392,57.871392 0 0 0 -34.0742,16.4785 57.871392,57.871392 0 0 0 0,81.8418 57.871392,57.871392 0 0 0 81.8418,0 57.871392,57.871392 0 0 0 16.5938,-34.6504 51.672135,51.672135 0 0 1 -13.0957,22.3848 51.672135,51.672135 0 0 1 -73.0743,0 51.672135,51.672135 0 0 1 0,-73.0743 51.672135,51.672135 0 0 1 21.8086,-12.9804 z m 39.0957,1.334 -14.0898,18.789 -22.5156,-6.6816 13.5175,19.207 -13.3124,19.3477 22.4414,-6.92 14.2871,18.6407 0.3554,-23.4825 22.1426,-7.8281 -22.2246,-7.5937 z m -32.4238,122.8574 -15.3281,80.3242 a 395.41891,395.41891 0 0 0 -353.8792,253.8769 h -68.597 c -1.216,0 -2.194,0.9781 -2.194,2.1934 v 78.4707 c 0,1.2153 0.978,2.1934 2.194,2.1934 h 875.6129 c 1.2153,0 2.1934,-0.9781 2.1934,-2.1934 v -78.4707 c 0,-1.2153 -0.9781,-2.1934 -2.1934,-2.1934 h -68.5996 a 395.41891,395.41891 0 0 0 -353.8867,-253.9082 z"
             style="opacity:1;fill:url(#linearGradient108);fill-opacity:1;stroke:none;stroke-width:1.89409;stroke-linecap:round;stroke-linejoin:round;stroke-miterlimit:4;stroke-dasharray:none;stroke-opacity:1" />
          <path
             inkscape:connector-curvature="0"
             id="path52"
             d="m 906.74261,1578.7583 -1.41368,1.8851 -2.25906,-0.6704 1.35625,1.9271 -1.33568,1.9412 2.25162,-0.6943 1.43348,1.8703 0.0357,-2.3561 2.22164,-0.7854 -2.22987,-0.7619 z"
             style="opacity:1;fill:url(#linearGradient110);fill-opacity:1;stroke:none;stroke-width:1.89409;stroke-linecap:round;stroke-linejoin:round;stroke-miterlimit:4;stroke-dasharray:none;stroke-opacity:1" />
        </g>
        <g
           id="g60"
           transform="matrix(0.19828037,-0.19828037,0.2143676,0.2143676,-604.21641,2.129838)"
           style="stroke:none">
          <path
             style="opacity:1;fill:#ffffff;fill-opacity:1;stroke:#000000;stroke-width:0.351467;stroke-linecap:round;stroke-linejoin:round;stroke-miterlimit:4;stroke-dasharray:none;stroke-opacity:1"
             d="m 1289.9953,1625.2386 h 33.9435 v 0 3.5921 0 h -33.9435 v 0 l -9.1733,-1.796 z"
             id="path56"
             inkscape:connector-curvature="0"
             sodipodi:nodetypes="ccccccccc" />
          <path
             sodipodi:nodetypes="cccccccccc"
             inkscape:connector-curvature="0"
             id="path58"
             d="m 1289.9953,1625.2386 h 33.9435 v 0 3.5921 0 h -33.9435 v 0 -1.796 z"
             style="opacity:1;fill:#0089e1;fill-opacity:1;stroke:#0089e1;stroke-width:0.351467;stroke-linecap:round;stroke-linejoin:round;stroke-miterlimit:4;stroke-dasharray:none;stroke-opacity:1" />
        </g>
      </g>
      <g
         id="g19910"
         transform="translate(0,-0.7867267)">
        <text
           xml:space="preserve"
           style="font-style:normal;font-variant:normal;font-weight:normal;font-stretch:normal;font-size:7.40833px;line-height:1.25;font-family:Roboto;-inkscape-font-specification:Roboto;fill:#000000;fill-opacity:1;stroke:none;stroke-width:0.272637"
           x="31.116226"
           y="149.02765"
           id="text74"><tspan
             sodipodi:role="line"
             id="tspan72"
             x="31.116226"
             y="149.02765"
             style="font-style:normal;font-variant:normal;font-weight:500;font-stretch:normal;font-size:7.40833px;font-family:Roboto;-inkscape-font-specification:'Roboto Medium';stroke-width:0.272637">SEKOLAH DASAR ISLAM TERPADU (SDIT)</tspan></text>
        <text
           xml:space="preserve"
           style="font-style:normal;font-variant:normal;font-weight:normal;font-stretch:normal;font-size:4.23333px;line-height:1.25;font-family:Roboto;-inkscape-font-specification:Roboto;fill:#000000;fill-opacity:1;stroke:none;stroke-width:0.290992"
           x="100.78442"
           y="166.13501"
           id="text78"><tspan
             sodipodi:role="line"
             x="100.78442"
             y="166.13501"
             style="font-style:italic;font-variant:normal;font-weight:300;font-stretch:normal;font-size:4.23333px;font-family:Roboto;-inkscape-font-specification:'Roboto Light Italic';text-align:center;text-anchor:middle;stroke-width:0.290992"
             id="tspan2423">Jl. Danau Toba Gg. Islamic Center, Sumbersari, Jember, Jawa Timur 68124, Telp. (0331) 324478 </tspan><tspan
             sodipodi:role="line"
             x="100.78442"
             y="171.42667"
             style="font-style:italic;font-variant:normal;font-weight:300;font-stretch:normal;font-size:4.23333px;font-family:Roboto;-inkscape-font-specification:'Roboto Light Italic';text-align:center;text-anchor:middle;stroke-width:0.290992"
             id="tspan9831">E-mail : harumjember@gmail.com  website : https://sditharum.id</tspan></text>
        <text
           id="text82"
           y="159.22052"
           x="64.617371"
           style="font-style:normal;font-variant:normal;font-weight:normal;font-stretch:normal;font-size:9.26042px;line-height:1.25;font-family:Roboto;-inkscape-font-specification:Roboto;fill:#000000;fill-opacity:1;stroke:none;stroke-width:0.309859"
           xml:space="preserve"><tspan
             style="font-style:normal;font-variant:normal;font-weight:bold;font-stretch:normal;font-size:9.26042px;font-family:Roboto;-inkscape-font-specification:'Roboto Bold';stroke-width:0.309859"
             y="159.22052"
             x="64.617371"
             id="tspan80"
             sodipodi:role="line">HARAPAN UMAT</tspan></text>
      </g>
    </g>
    <g
       id="g28783">
      <g
         transform="matrix(1.0088128,0,0,-1,-35.266284,285.11122)"
         id="g94">
        <rect
           y="146.56671"
           x="-31.562624"
           height="1.5"
           width="247.48772"
           id="rect90"
           style="fill:#6ac335;fill-opacity:1;stroke:none;stroke-width:0.185517;stroke-linecap:round;stroke-linejoin:round;stroke-opacity:1" />
        <rect
           style="fill:#6ac335;fill-opacity:1;stroke:none;stroke-width:0.13118;stroke-linecap:round;stroke-linejoin:round;stroke-opacity:1"
           id="rect92"
           width="247.48772"
           height="0.75"
           x="-31.562626"
           y="144.63876" />
      </g>
      <g
         id="g100"
         transform="matrix(1.0088128,0,0,1,-35.266284,30.889701)">
        <rect
           style="fill:#6ac335;fill-opacity:1;stroke:none;stroke-width:0.185517;stroke-linecap:round;stroke-linejoin:round;stroke-opacity:1"
           id="rect96"
           width="247.48772"
           height="1.5"
           x="-31.562624"
           y="146.56671" />
        <rect
           y="144.63876"
           x="-31.562626"
           height="0.75"
           width="247.48772"
           id="rect98"
           style="fill:#6ac335;fill-opacity:1;stroke:none;stroke-width:0.13118;stroke-linecap:round;stroke-linejoin:round;stroke-opacity:1" />
      </g>
    </g>
  </g>
</svg>
