<?xml version="1.0" encoding="UTF-8" standalone="no"?>
<svg
   height="542.30151pt"
   viewBox="0 0 542.30151 542.30151"
   width="542.30151pt"
   version="1.1"
   id="svg42"
   sodipodi:docname="logo.svg"
   inkscape:version="1.1.2 (0a00cf5339, 2022-02-04)"
   xmlns:inkscape="http://www.inkscape.org/namespaces/inkscape"
   xmlns:sodipodi="http://sodipodi.sourceforge.net/DTD/sodipodi-0.dtd"
   xmlns="http://www.w3.org/2000/svg"
   xmlns:svg="http://www.w3.org/2000/svg">
  <defs
     id="defs46" />
  <sodipodi:namedview
     id="namedview44"
     pagecolor="#ffffff"
     bordercolor="#666666"
     borderopacity="1.0"
     inkscape:pageshadow="2"
     inkscape:pageopacity="0.0"
     inkscape:pagecheckerboard="0"
     inkscape:document-units="pt"
     showgrid="false"
     inkscape:zoom="0.7674295"
     inkscape:cx="378.5364"
     inkscape:cy="327.06587"
     inkscape:window-width="1366"
     inkscape:window-height="732"
     inkscape:window-x="0"
     inkscape:window-y="0"
     inkscape:window-maximized="1"
     inkscape:current-layer="g293"
     fit-margin-top="0"
     fit-margin-left="0"
     fit-margin-right="0"
     fit-margin-bottom="0" />
  <rect
     style="fill:none;stroke:#198754;stroke-width:22.5;stroke-linejoin:round;fill-opacity:1;stroke-opacity:1"
     id="rect317"
     width="519.80151"
     height="519.80151"
     x="11.25"
     y="11.25"
     ry="130.81425" />
  <path
     d="m 962.02658,325.53899 h 392.00002 v 90 H 962.02658 Z m 0,0"
     fill="#47568c"
     id="path2"
     style="fill:none;stroke:#198754;stroke-width:28;stroke-miterlimit:4;stroke-dasharray:none;stroke-opacity:1" />
  <path
     d="m 962.02658,145.53899 h 392.00002 v 90 H 962.02658 Z m 0,0"
     fill="#47568c"
     id="path4"
     style="fill:none;stroke:#198754;stroke-width:28;stroke-miterlimit:4;stroke-dasharray:none;stroke-opacity:1" />
  <path
     d="m 1158.0266,145.53899 h 196 v 90 h -196 z m 0,0"
     fill="#2c3b73"
     id="path6"
     style="fill:none;stroke:#198754;stroke-width:28;stroke-miterlimit:4;stroke-dasharray:none;stroke-opacity:1" />
  <path
     d="m 1158.0266,325.53899 h 196 v 90 h -196 z m 0,0"
     fill="#2c3b73"
     id="path8"
     style="fill:none;stroke:#198754;stroke-width:28;stroke-miterlimit:4;stroke-dasharray:none;stroke-opacity:1" />
  <path
     d="M 1399.0266,24.538986 H 917.02658 c -8.40234,0 -15,6.597656 -15,15 V 160.53899 c 0,8.39844 6.59766,15 15,15 h 482.00002 c 8.4023,0 15,-6.60156 15,-15 V 39.538986 c 0,-8.402344 -6.5977,-15 -15,-15 z m 0,0"
     fill="#61729b"
     id="path10"
     style="fill:#ffffff;stroke:#198754;stroke-width:28;stroke-miterlimit:4;stroke-dasharray:none;stroke-opacity:1" />
  <path
     d="M 1399.0266,235.53899 H 917.02658 c -8.40234,0 -15,3.95859 -15,9 v 72 c 0,5.03906 6.59766,9 15,9 h 482.00002 c 8.4023,0 15,-3.96094 15,-9 v -72 c 0,-5.04141 -6.5977,-9 -15,-9 z m 0,0"
     fill="#61729b"
     id="path12"
     style="fill:#ffffff;stroke:#198754;stroke-width:28;stroke-miterlimit:4;stroke-dasharray:none;stroke-opacity:1" />
  <path
     d="M 1399.0266,385.53899 H 917.02658 c -8.40234,0 -15,6.59766 -15,15 v 121 c 0,8.39844 6.59766,15 15,15 h 482.00002 c 8.4023,0 15,-6.60156 15,-15 v -121 c 0,-8.40234 -6.5977,-15 -15,-15 z m 0,0"
     fill="#61729b"
     id="path14"
     style="fill:#ffffff;stroke:#198754;stroke-width:28;stroke-miterlimit:4;stroke-dasharray:none;stroke-opacity:1" />
  <path
     d="m 1414.0266,244.53899 v 72 c 0,5.03906 -6.5977,9 -15,9 h -241 v -90 h 241 c 8.4023,0 15,3.95859 15,9 z m 0,0"
     fill="#47568c"
     id="path18"
     style="fill:#ffffff;stroke:#198754;stroke-width:28;stroke-miterlimit:4;stroke-dasharray:none;stroke-opacity:1" />
  <path
     d="m 1414.0266,400.53899 v 121 c 0,8.39844 -6.5977,15 -15,15 h -241 v -151 h 241 c 8.4023,0 15,6.59766 15,15 z m 0,0"
     fill="#47568c"
     id="path20"
     style="fill:#ffffff;stroke:#198754;stroke-width:28;stroke-miterlimit:4;stroke-dasharray:none;stroke-opacity:1" />
  <g
     fill="#25d9f8"
     id="g40"
     style="fill:none;stroke:#198754;stroke-width:18;stroke-miterlimit:4;stroke-dasharray:none;stroke-opacity:1"
     transform="translate(902.02658,24.538986)">
    <path
       d="m 90,436 c 0,8.28516 -6.714844,15 -15,15 -8.285156,0 -15,-6.71484 -15,-15 0,-8.28516 6.714844,-15 15,-15 8.285156,0 15,6.71484 15,15 z m 0,0"
       id="path22"
       style="fill:none;stroke:#198754;stroke-width:18;stroke-miterlimit:4;stroke-dasharray:none;stroke-opacity:1" />
    <path
       d="m 150,436 c 0,8.28516 -6.71484,15 -15,15 -8.28516,0 -15,-6.71484 -15,-15 0,-8.28516 6.71484,-15 15,-15 8.28516,0 15,6.71484 15,15 z m 0,0"
       id="path24"
       style="fill:none;stroke:#198754;stroke-width:18;stroke-miterlimit:4;stroke-dasharray:none;stroke-opacity:1" />
    <path
       d="m 210,436 c 0,8.28516 -6.71484,15 -15,15 -8.28516,0 -15,-6.71484 -15,-15 0,-8.28516 6.71484,-15 15,-15 8.28516,0 15,6.71484 15,15 z m 0,0"
       id="path26"
       style="fill:none;stroke:#198754;stroke-width:18;stroke-miterlimit:4;stroke-dasharray:none;stroke-opacity:1" />
    <path
       d="m 90,256 c 0,8.28516 -6.714844,15 -15,15 -8.285156,0 -15,-6.71484 -15,-15 0,-8.28516 6.714844,-15 15,-15 8.285156,0 15,6.71484 15,15 z m 0,0"
       id="path28"
       style="fill:none;stroke:#198754;stroke-width:18;stroke-miterlimit:4;stroke-dasharray:none;stroke-opacity:1" />
    <path
       d="m 150,256 c 0,8.28516 -6.71484,15 -15,15 -8.28516,0 -15,-6.71484 -15,-15 0,-8.28516 6.71484,-15 15,-15 8.28516,0 15,6.71484 15,15 z m 0,0"
       id="path30"
       style="fill:none;stroke:#198754;stroke-width:18;stroke-miterlimit:4;stroke-dasharray:none;stroke-opacity:1" />
    <path
       d="m 210,256 c 0,8.28516 -6.71484,15 -15,15 -8.28516,0 -15,-6.71484 -15,-15 0,-8.28516 6.71484,-15 15,-15 8.28516,0 15,6.71484 15,15 z m 0,0"
       id="path32"
       style="fill:none;stroke:#198754;stroke-width:18;stroke-miterlimit:4;stroke-dasharray:none;stroke-opacity:1" />
    <path
       d="m 90,76 c 0,8.285156 -6.714844,15 -15,15 -8.285156,0 -15,-6.714844 -15,-15 0,-8.285156 6.714844,-15 15,-15 8.285156,0 15,6.714844 15,15 z m 0,0"
       id="path34"
       style="fill:none;stroke:#198754;stroke-width:18;stroke-miterlimit:4;stroke-dasharray:none;stroke-opacity:1" />
    <path
       d="m 150,76 c 0,8.285156 -6.71484,15 -15,15 -8.28516,0 -15,-6.714844 -15,-15 0,-8.285156 6.71484,-15 15,-15 8.28516,0 15,6.714844 15,15 z m 0,0"
       id="path36"
       style="fill:none;stroke:#198754;stroke-width:18;stroke-miterlimit:4;stroke-dasharray:none;stroke-opacity:1" />
    <path
       d="m 210,76 c 0,8.285156 -6.71484,15 -15,15 -8.28516,0 -15,-6.714844 -15,-15 0,-8.285156 6.71484,-15 15,-15 8.28516,0 15,6.714844 15,15 z m 0,0"
       id="path38"
       style="fill:none;stroke:#198754;stroke-width:18;stroke-miterlimit:4;stroke-dasharray:none;stroke-opacity:1" />
  </g>
  <g
     id="g293"
     transform="matrix(1.1303505,0,0,1.1303505,178.36974,-60.766221)">
    <path
       style="fill:#198754;fill-opacity:1;fill-rule:nonzero;stroke:none;stroke-width:1.75487"
       d="M 228.82576,229.26926 H -64.662492 c -5.833571,-5.83357 -9.096532,-9.09653 -14.923247,-14.92325 V 146.8932 c 5.826715,-5.82671 9.089676,-9.09653 14.923247,-14.92323 H 228.82576 c 5.82671,5.8267 9.09652,9.09652 14.92326,14.92323 v 67.45281 c -5.82674,5.82672 -9.09655,9.08968 -14.92326,14.92325"
       id="path9" />
    <path
       style="fill:#ffffff;fill-opacity:1;fill-rule:nonzero;stroke:none;stroke-width:1.75487"
       d="M 228.82576,229.26926 H -64.662492 c -5.833571,-5.83357 -9.096532,-9.09653 -14.923247,-14.92325 H 243.74902 c -5.82674,5.82672 -9.09655,9.08968 -14.92326,14.92325"
       id="path11" />
    <path
       style="fill:#ffffff;fill-opacity:1;fill-rule:nonzero;stroke:none;stroke-width:1.75487"
       d="M -64.662492,131.96997 H 228.82576 c 5.82671,5.8267 9.09652,9.09652 14.92326,14.92323 H -79.585739 c 5.826715,-5.82671 9.089676,-9.09653 14.923247,-14.92323"
       id="path13" />
    <path
       style="fill:#262626;fill-opacity:1;fill-rule:nonzero;stroke:none;stroke-width:1.75487"
       d="M -62.852782,224.88209 H 227.00919 l 12.35265,-12.35264 V 148.70977 L 227.00919,136.35714 H -62.852782 l -12.345782,12.35263 v 63.81968 z m 291.678542,8.77435 H -64.662492 c -1.165343,0 -2.282702,-0.46614 -3.105298,-1.28872 l -14.923247,-14.92327 c -0.822595,-0.82258 -1.281876,-1.93995 -1.281876,-3.09844 V 146.8932 c 0,-1.16533 0.459281,-2.27584 1.281876,-3.09844 l 14.923247,-14.92325 c 0.822596,-0.8226 1.939955,-1.28872 3.105298,-1.28872 H 228.82576 c 1.16534,0 2.27586,0.46612 3.09845,1.28872 l 14.92325,14.92325 c 0.82945,0.8226 1.28873,1.93311 1.28873,3.09844 v 67.45281 c 0,1.15849 -0.45928,2.27586 -1.28873,3.09844 l -14.92325,14.92327 c -0.82259,0.82258 -1.93311,1.28872 -3.09845,1.28872"
       id="path15" />
    <path
       style="fill:#262626;fill-opacity:1;fill-rule:nonzero;stroke:none;stroke-width:1.75487"
       d="M 160.43382,216.97831 H -79.585739 V 211.7137 H 160.43382 v 5.26461"
       id="path17" />
    <path
       style="fill:#262626;fill-opacity:1;fill-rule:nonzero;stroke:none;stroke-width:1.75487"
       d="M 243.74902,216.97831 H 168.6255 v -5.26461 h 75.12352 v 5.26461"
       id="path19" />
    <path
       style="fill:#ffffff;fill-opacity:1;fill-rule:nonzero;stroke:none;stroke-width:1.75487"
       d="m -44.885923,198.16831 c -2.906512,0 -5.264619,-2.35811 -5.264619,-5.26461 v -24.56818 c 0,-2.90651 2.358107,-5.26461 5.264619,-5.26461 2.906503,0 5.264608,2.3581 5.264608,5.26461 v 24.56818 c 0,2.9065 -2.358105,5.26461 -5.264608,5.26461"
       id="path21" />
    <path
       style="fill:#ffffff;fill-opacity:1;fill-rule:nonzero;stroke:none;stroke-width:1.75487"
       d="m -20.317747,198.16831 c -2.906503,0 -5.264609,-2.35811 -5.264609,-5.26461 v -24.56818 c 0,-2.90651 2.358106,-5.26461 5.264609,-5.26461 2.906503,0 5.264609,2.3581 5.264609,5.26461 v 24.56818 c 0,2.9065 -2.358106,5.26461 -5.264609,5.26461"
       id="path23" />
    <path
       style="fill:#ffffff;fill-opacity:1;fill-rule:nonzero;stroke:none;stroke-width:1.75487"
       d="m 4.2504124,198.16831 c -2.9064862,0 -5.2645921,-2.35811 -5.2645921,-5.26461 v -24.56818 c 0,-2.90651 2.3581059,-5.26461 5.2645921,-5.26461 2.9065031,0 5.2646083,2.3581 5.2646083,5.26461 v 24.56818 c 0,2.9065 -2.3581052,5.26461 -5.2646083,5.26461"
       id="path25" />
    <path
       style="fill:#ffffff;fill-opacity:1;fill-rule:nonzero;stroke:none;stroke-width:1.75487"
       d="m 28.818589,198.16831 c -2.906503,0 -5.26461,-2.35811 -5.26461,-5.26461 v -24.56818 c 0,-2.90651 2.358107,-5.26461 5.26461,-5.26461 2.906503,0 5.264609,2.3581 5.264609,5.26461 v 24.56818 c 0,2.9065 -2.358106,5.26461 -5.264609,5.26461"
       id="path27" />
    <path
       style="fill:#262626;fill-opacity:1;fill-rule:nonzero;stroke:none;stroke-width:1.75487"
       d="m 203.7229,180.61961 c 0,9.69291 -7.85579,17.5487 -17.5487,17.5487 -9.69291,0 -17.5487,-7.85579 -17.5487,-17.5487 0,-9.69291 7.85579,-17.5487 17.5487,-17.5487 9.69291,0 17.5487,7.85579 17.5487,17.5487"
       id="path29" />
    <path
       style="fill:#ffffff;fill-opacity:1;fill-rule:nonzero;stroke:none;stroke-width:1.75487"
       d="m 197.29981,180.61961 c 0,6.14204 -4.98357,11.12561 -11.12561,11.12561 -6.14889,0 -11.13246,-4.98357 -11.13246,-11.12561 0,-6.14889 4.98357,-11.1256 11.13246,-11.1256 6.14204,0 11.12561,4.97671 11.12561,11.1256"
       id="path31" />
    <path
       style="fill:#198754;fill-opacity:1;fill-rule:nonzero;stroke:none;stroke-width:1.75487"
       d="M 228.82576,326.56172 H -64.662492 c -5.833571,-5.82674 -9.096532,-9.09655 -14.923247,-14.92326 v -67.44595 c 5.826715,-5.83356 9.089676,-9.09654 14.923247,-14.92325 H 228.82576 c 5.82671,5.82671 9.09652,9.08969 14.92326,14.92325 v 67.44595 c -5.82674,5.82671 -9.09655,9.09652 -14.92326,14.92326"
       id="path33" />
    <path
       style="fill:#ffffff;fill-opacity:1;fill-rule:nonzero;stroke:none;stroke-width:1.75487"
       d="M 228.82576,326.56172 H -64.662492 c -5.833571,-5.82674 -9.096532,-9.09655 -14.923247,-14.92326 H 243.74902 c -5.82674,5.82671 -9.09655,9.09652 -14.92326,14.92326"
       id="path35" />
    <path
       style="fill:#ffffff;fill-opacity:1;fill-rule:nonzero;stroke:none;stroke-width:1.75487"
       d="M -64.662492,229.26926 H 228.82576 c 5.82671,5.82671 9.09652,9.08969 14.92326,14.92325 H -79.585739 c 5.826715,-5.83356 9.089676,-9.09654 14.923247,-14.92325"
       id="path37" />
    <path
       style="fill:#262626;fill-opacity:1;fill-rule:nonzero;stroke:none;stroke-width:1.75487"
       d="M -62.852782,322.17454 H 227.00919 l 12.35265,-12.35265 V 246.00908 L 227.00919,233.65644 H -62.852782 l -12.345782,12.35264 v 63.81281 z m 291.678542,8.77435 H -64.662492 c -1.165343,0 -2.282702,-0.46615 -3.105298,-1.28874 l -14.923247,-14.92324 c -0.822595,-0.82259 -1.281876,-1.93311 -1.281876,-3.09845 v -67.44595 c 0,-1.16536 0.459281,-2.28269 1.281876,-3.10529 l 14.923247,-14.92325 c 0.822596,-0.8226 1.939955,-1.28188 3.105298,-1.28188 H 228.82576 c 1.16534,0 2.27586,0.45928 3.09845,1.28188 l 14.92325,14.92325 c 0.82945,0.8226 1.28873,1.93993 1.28873,3.10529 v 67.44595 c 0,1.16534 -0.45928,2.27586 -1.28873,3.09845 l -14.92325,14.92324 c -0.82259,0.82259 -1.93311,1.28874 -3.09845,1.28874"
       id="path39" />
    <path
       style="fill:#262626;fill-opacity:1;fill-rule:nonzero;stroke:none;stroke-width:1.75487"
       d="M 160.43382,314.27077 H -79.585739 v -5.26461 H 160.43382 v 5.26461"
       id="path41" />
    <path
       style="fill:#262626;fill-opacity:1;fill-rule:nonzero;stroke:none;stroke-width:1.75487"
       d="M 243.74902,314.27077 H 168.6255 v -5.26461 h 75.12352 v 5.26461"
       id="path43" />
    <path
       style="fill:#ffffff;fill-opacity:1;fill-rule:nonzero;stroke:none;stroke-width:1.75487"
       d="m -44.885923,295.46076 c -2.906512,0 -5.264619,-2.35812 -5.264619,-5.26461 v -24.56818 c 0,-2.9065 2.358107,-5.26461 5.264619,-5.26461 2.906503,0 5.264608,2.35811 5.264608,5.26461 v 24.56818 c 0,2.90649 -2.358105,5.26461 -5.264608,5.26461"
       id="path45" />
    <path
       style="fill:#ffffff;fill-opacity:1;fill-rule:nonzero;stroke:none;stroke-width:1.75487"
       d="m -20.317747,295.46076 c -2.906503,0 -5.264609,-2.35812 -5.264609,-5.26461 v -24.56818 c 0,-2.9065 2.358106,-5.26461 5.264609,-5.26461 2.906503,0 5.264609,2.35811 5.264609,5.26461 v 24.56818 c 0,2.90649 -2.358106,5.26461 -5.264609,5.26461"
       id="path47" />
    <path
       style="fill:#ffffff;fill-opacity:1;fill-rule:nonzero;stroke:none;stroke-width:1.75487"
       d="m 4.2504124,295.46076 c -2.9064862,0 -5.2645921,-2.35812 -5.2645921,-5.26461 v -24.56818 c 0,-2.9065 2.3581059,-5.26461 5.2645921,-5.26461 2.9065031,0 5.2646083,2.35811 5.2646083,5.26461 v 24.56818 c 0,2.90649 -2.3581052,5.26461 -5.2646083,5.26461"
       id="path49" />
    <path
       style="fill:#ffffff;fill-opacity:1;fill-rule:nonzero;stroke:none;stroke-width:1.75487"
       d="m 28.818589,295.46076 c -2.906503,0 -5.26461,-2.35812 -5.26461,-5.26461 v -24.56818 c 0,-2.9065 2.358107,-5.26461 5.26461,-5.26461 2.906503,0 5.264609,2.35811 5.264609,5.26461 v 24.56818 c 0,2.90649 -2.358106,5.26461 -5.264609,5.26461"
       id="path51" />
    <path
       style="fill:#262626;fill-opacity:1;fill-rule:nonzero;stroke:none;stroke-width:1.75487"
       d="m 203.7229,277.91206 c 0,9.69291 -7.85579,17.5487 -17.5487,17.5487 -9.69291,0 -17.5487,-7.85579 -17.5487,-17.5487 0,-9.69292 7.85579,-17.5487 17.5487,-17.5487 9.69291,0 17.5487,7.85578 17.5487,17.5487"
       id="path53" />
    <path
       style="fill:#ffffff;fill-opacity:1;fill-rule:nonzero;stroke:none;stroke-width:1.75487"
       d="m 197.29981,277.91206 c 0,6.1489 -4.98357,11.12559 -11.12561,11.12559 -6.14889,0 -11.13246,-4.97669 -11.13246,-11.12559 0,-6.14204 4.98357,-11.1256 11.13246,-11.1256 6.14204,0 11.12561,4.98356 11.12561,11.1256"
       id="path55" />
    <path
       style="fill:#198754;fill-opacity:1;fill-rule:nonzero;stroke:none;stroke-width:1.75487"
       d="M 228.82576,423.85416 H -64.662492 c -5.833571,-5.82672 -9.096532,-9.09653 -14.923247,-14.92324 v -67.44597 c 5.826715,-5.8267 9.089676,-9.09652 14.923247,-14.92323 H 228.82576 c 5.82671,5.82671 9.09652,9.09653 14.92326,14.92323 v 67.44597 c -5.82674,5.82671 -9.09655,9.09652 -14.92326,14.92324"
       id="path57" />
    <path
       style="fill:#ffffff;fill-opacity:1;fill-rule:nonzero;stroke:none;stroke-width:1.75487"
       d="M 228.82576,423.85416 H -64.662492 c -5.833571,-5.82672 -9.096532,-9.09653 -14.923247,-14.92324 H 243.74902 c -5.82674,5.82671 -9.09655,9.09652 -14.92326,14.92324"
       id="path59" />
    <path
       style="fill:#ffffff;fill-opacity:1;fill-rule:nonzero;stroke:none;stroke-width:1.75487"
       d="M -64.662492,326.56172 H 228.82576 c 5.82671,5.82671 9.09652,9.09653 14.92326,14.92323 H -79.585739 c 5.826715,-5.8267 9.089676,-9.09652 14.923247,-14.92323"
       id="path61" />
    <path
       style="fill:#262626;fill-opacity:1;fill-rule:nonzero;stroke:none;stroke-width:1.75487"
       d="M -62.852782,419.46698 H 227.00919 l 12.35265,-12.35264 V 343.30152 L 227.00919,330.94889 H -62.852782 l -12.345782,12.35263 v 63.81282 z m 291.678542,8.77435 H -64.662492 c -1.165343,0 -2.282702,-0.45929 -3.105298,-1.28873 l -14.923247,-14.92325 c -0.822595,-0.81573 -1.281876,-1.9331 -1.281876,-3.09843 v -67.44597 c 0,-1.16534 0.459281,-2.2827 1.281876,-3.10529 l 14.923247,-14.92324 c 0.822596,-0.8226 1.939955,-1.28188 3.105298,-1.28188 H 228.82576 c 1.16534,0 2.27586,0.45928 3.09845,1.28188 l 14.92325,14.92324 c 0.82945,0.82259 1.28873,1.93995 1.28873,3.10529 v 67.44597 c 0,1.16533 -0.45928,2.2827 -1.28873,3.09843 l -14.92325,14.92325 c -0.82259,0.82944 -1.93311,1.28873 -3.09845,1.28873"
       id="path63" />
    <path
       style="fill:#262626;fill-opacity:1;fill-rule:nonzero;stroke:none;stroke-width:1.75487"
       d="M 160.43382,411.56322 H -79.585739 v -5.26461 H 160.43382 v 5.26461"
       id="path65" />
    <path
       style="fill:#262626;fill-opacity:1;fill-rule:nonzero;stroke:none;stroke-width:1.75487"
       d="M 243.74902,411.56322 H 168.6255 v -5.26461 h 75.12352 v 5.26461"
       id="path67" />
    <path
       style="fill:#ffffff;fill-opacity:1;fill-rule:nonzero;stroke:none;stroke-width:1.75487"
       d="m -44.885923,392.76006 c -2.906512,0 -5.264619,-2.35811 -5.264619,-5.26461 v -24.56818 c 0,-2.91335 2.358107,-5.26461 5.264619,-5.26461 2.906503,0 5.264608,2.35126 5.264608,5.26461 v 24.56818 c 0,2.9065 -2.358105,5.26461 -5.264608,5.26461"
       id="path69" />
    <path
       style="fill:#ffffff;fill-opacity:1;fill-rule:nonzero;stroke:none;stroke-width:1.75487"
       d="m -20.317747,392.76006 c -2.906503,0 -5.264609,-2.35811 -5.264609,-5.26461 v -24.56818 c 0,-2.91335 2.358106,-5.26461 5.264609,-5.26461 2.906503,0 5.264609,2.35126 5.264609,5.26461 v 24.56818 c 0,2.9065 -2.358106,5.26461 -5.264609,5.26461"
       id="path71" />
    <path
       style="fill:#ffffff;fill-opacity:1;fill-rule:nonzero;stroke:none;stroke-width:1.75487"
       d="m 4.2504124,392.76006 c -2.9064862,0 -5.2645921,-2.35811 -5.2645921,-5.26461 v -24.56818 c 0,-2.91335 2.3581059,-5.26461 5.2645921,-5.26461 2.9065031,0 5.2646083,2.35126 5.2646083,5.26461 v 24.56818 c 0,2.9065 -2.3581052,5.26461 -5.2646083,5.26461"
       id="path73" />
    <path
       style="fill:#ffffff;fill-opacity:1;fill-rule:nonzero;stroke:none;stroke-width:1.75487"
       d="m 28.818589,392.76006 c -2.906503,0 -5.26461,-2.35811 -5.26461,-5.26461 v -24.56818 c 0,-2.91335 2.358107,-5.26461 5.26461,-5.26461 2.906503,0 5.264609,2.35126 5.264609,5.26461 v 24.56818 c 0,2.9065 -2.358106,5.26461 -5.264609,5.26461"
       id="path75" />
    <path
       style="fill:#262626;fill-opacity:1;fill-rule:nonzero;stroke:none;stroke-width:1.75487"
       d="m 203.7229,375.21136 c 0,9.68605 -7.85579,17.5487 -17.5487,17.5487 -9.69291,0 -17.5487,-7.86265 -17.5487,-17.5487 0,-9.69291 7.85579,-17.5487 17.5487,-17.5487 9.69291,0 17.5487,7.85579 17.5487,17.5487"
       id="path77" />
    <path
       style="fill:#ffffff;fill-opacity:1;fill-rule:nonzero;stroke:none;stroke-width:1.75487"
       d="m 197.29981,375.21136 c 0,6.14204 -4.98357,11.12561 -11.12561,11.12561 -6.14889,0 -11.13246,-4.98357 -11.13246,-11.12561 0,-6.14889 4.98357,-11.13246 11.13246,-11.13246 6.14204,0 11.12561,4.98357 11.12561,11.13246"
       id="path79" />
    <path
       style="fill:#ffffff;fill-opacity:1;fill-rule:nonzero;stroke:none;stroke-width:1.75487"
       d="M 228.87374,455.31156 H -64.662492 v -31.4574 H 228.87374 v 31.4574"
       id="path81" />
    <path
       style="fill:#198754;fill-opacity:1;fill-rule:nonzero;stroke:none;stroke-width:1.75487"
       d="M 228.87374,455.31156 H -64.662492 V 439.67541 H 228.87374 v 15.63615"
       id="path83" />
    <path
       style="fill:#262626;fill-opacity:1;fill-rule:nonzero;stroke:none;stroke-width:1.75487"
       d="M -60.275317,450.92439 H 224.48657 V 428.24133 H -60.275317 Z m 289.149057,8.77435 H -64.662492 c -2.426657,0 -4.387174,-1.96737 -4.387174,-4.38718 v -31.4574 c 0,-2.4198 1.960517,-4.38718 4.387174,-4.38718 H 228.87374 c 2.42667,0 4.38718,1.96738 4.38718,4.38718 v 31.4574 c 0,2.41981 -1.96051,4.38718 -4.38718,4.38718"
       id="path85" />
  </g>
</svg>
