<?xml version="1.0" encoding="UTF-8" standalone="no"?>
<svg
   xmlns:dc="http://purl.org/dc/elements/1.1/"
   xmlns:cc="http://creativecommons.org/ns#"
   xmlns:rdf="http://www.w3.org/1999/02/22-rdf-syntax-ns#"
   xmlns:svg="http://www.w3.org/2000/svg"
   xmlns="http://www.w3.org/2000/svg"
   xmlns:sodipodi="http://sodipodi.sourceforge.net/DTD/sodipodi-0.dtd"
   xmlns:inkscape="http://www.inkscape.org/namespaces/inkscape"
   height="512"
   width="512"
   inkscape:version="1.0 (4035a4fb49, 2020-05-01)"
   sodipodi:docname="plus.svg"
   xml:space="preserve"
   viewBox="0 0 512 512"
   y="0px"
   x="0px"
   id="Layer_1"
   version="1.1"><metadata
   id="metadata47"><rdf:RDF><cc:Work
       rdf:about=""><dc:format>image/svg+xml</dc:format><dc:type
         rdf:resource="http://purl.org/dc/dcmitype/StillImage" /><dc:title></dc:title></cc:Work></rdf:RDF></metadata><defs
   id="defs45" /><sodipodi:namedview
   fit-margin-bottom="0"
   fit-margin-right="0"
   fit-margin-left="0"
   fit-margin-top="0"
   inkscape:current-layer="Layer_1"
   inkscape:window-maximized="1"
   inkscape:window-y="-8"
   inkscape:window-x="-8"
   inkscape:cy="416.35001"
   inkscape:cx="-364.34432"
   inkscape:zoom="0.26269531"
   showgrid="false"
   id="namedview43"
   inkscape:window-height="705"
   inkscape:window-width="1366"
   inkscape:pageshadow="2"
   inkscape:pageopacity="0"
   guidetolerance="10"
   gridtolerance="10"
   objecttolerance="10"
   borderopacity="1"
   bordercolor="#666666"
   pagecolor="#ffffff" />
<path
   id="path2"
   d="M 512,256.006 C 512,397.402 397.394,512.004 256.004,512 114.606,512.004 3.2062723e-7,397.402 3.2062723e-7,256.006 -0.00699968,114.61 114.606,0 256.004,0 397.394,0 512,114.614 512,256.006 Z"
   style="fill:#ffcd54" />
<path
   id="path4"
   d="m 511.936,258.555 c -0.116,-0.116 -0.234,-0.234 -0.35,-0.35 C 511.28,257.897 383.457,130.074 383.15,129.769 350.65,97.035 305.661,76.717 256,76.717 157.145,76.717 76.717,157.145 76.717,256 c 0,49.659 20.316,94.646 53.049,127.146 0.306,0.308 0.612,0.614 0.921,0.921 0.306,0.308 127.209,127.211 127.517,127.516 0.117,0.118 0.236,0.236 0.353,0.353 139.356,-1.364 252.013,-114.02 253.379,-253.381 z"
   style="fill:#f4ba41" />
<g
   id="g10">
	<path
   id="path6"
   d="m 256,76.717 c -98.855,0 -179.283,80.428 -179.283,179.283 0,98.855 80.428,179.283 179.283,179.283 98.855,0 179.283,-80.428 179.283,-179.283 C 435.283,157.145 354.855,76.717 256,76.717 Z m 0,343.625 C 165.381,420.342 91.658,346.618 91.658,256 91.658,165.382 165.381,91.658 256,91.658 c 90.619,0 164.342,73.723 164.342,164.342 0,90.619 -73.723,164.342 -164.342,164.342 z"
   style="fill:#f4f6f9" />
	<path
   id="path8"
   d="M 345.642,248.53 H 263.47 v -82.172 c 0,-4.126 -3.341,-7.47 -7.47,-7.47 -4.129,0 -7.47,3.345 -7.47,7.47 v 82.172 h -82.172 c -4.129,0 -7.47,3.345 -7.47,7.47 0,4.126 3.341,7.47 7.47,7.47 h 82.172 v 82.172 c 0,4.126 3.341,7.47 7.47,7.47 4.129,0 7.47,-3.345 7.47,-7.47 V 263.47 h 82.172 c 4.129,0 7.47,-3.345 7.47,-7.47 -0.001,-4.126 -3.341,-7.47 -7.47,-7.47 z"
   style="fill:#f4f6f9" />
</g>
<g
   id="g12">
</g>
<g
   id="g14">
</g>
<g
   id="g16">
</g>
<g
   id="g18">
</g>
<g
   id="g20">
</g>
<g
   id="g22">
</g>
<g
   id="g24">
</g>
<g
   id="g26">
</g>
<g
   id="g28">
</g>
<g
   id="g30">
</g>
<g
   id="g32">
</g>
<g
   id="g34">
</g>
<g
   id="g36">
</g>
<g
   id="g38">
</g>
<g
   id="g40">
</g>
</svg>
