<svg id="Capa_1" enable-background="new 0 0 512 512" height="512" viewBox="0 0 512 512" width="512" xmlns="http://www.w3.org/2000/svg"><g><g><path d="m286 512h-60v-512h60z" fill="#4d5e80"/></g><path d="m256 0h30v512h-30z" fill="#3d4b66"/><g><path d="m467 330h-422c-24.814 0-45-20.186-45-45v-180c0-24.814 20.186-45 45-45h422c24.814 0 45 20.186 45 45v180c0 24.814-20.186 45-45 45z" fill="#ffdf40"/></g><path d="m467 60h-211v270h211c24.814 0 45-20.186 45-45v-180c0-24.814-20.186-45-45-45z" fill="#ffbe40"/><g id="Soon_5_"><g><path d="m91 270c-12.041 0-23.35-4.688-31.846-13.198l-10.576-10.62 21.24-21.182 10.605 10.62c8.614 8.657 25.577 1.685 25.577-10.62 0-8.276-6.738-15-15-15-24.814 0-45-20.186-45-45s20.186-45 45-45c12.041 0 23.35 4.688 31.846 13.198l10.576 10.62-21.24 21.182-10.605-10.62c-8.585-8.657-25.577-1.699-25.577 10.62 0 8.276 6.738 15 15 15 24.814 0 45 20.186 45 45s-20.186 45-45 45z" fill="#f36a3d"/></g><g><path d="m196 270c-24.814 0-45-20.186-45-45v-60c0-24.814 20.186-45 45-45s45 20.186 45 45v60c0 24.814-20.186 45-45 45zm0-120c-8.262 0-15 6.724-15 15v60c0 8.276 6.738 15 15 15s15-6.724 15-15v-60c0-8.276-6.738-15-15-15z" fill="#f36a3d"/></g><g><path d="m466 270h-40.4l-34.6-92.285v92.285h-30v-150h40.4l34.6 92.285v-92.285h30z" fill="#ec4c36"/></g><g><path d="m301 270c-24.814 0-45-20.186-45-45v-60c0-24.814 20.186-45 45-45s45 20.186 45 45v60c0 24.814-20.186 45-45 45zm0-120c-8.262 0-15 6.724-15 15v60c0 8.276 6.738 15 15 15s15-6.724 15-15v-60c0-8.276-6.738-15-15-15z" fill="#ec4c36"/></g></g></g></svg>